<?xml version="1.0" standalone="no"?>
<svg xmlns="http://www.w3.org/2000/svg" xmlns:xlink="http://www.w3.org/1999/xlink" width="472pt" height="1163pt" viewBox="0.00 0.00 472.00 1163.40">
<g id="graph0" class="graph" transform="translate(4,1159.4000244140625) scale(1)" data-name="DataIntegratorProgram">

<polygon fill="white" stroke="none" points="-4,4 -4,-1159.4 468,-1159.4 468,4 -4,4"/>
<text text-anchor="start" x="52.92" y="-9.2" font-family="Helvetica,Arial,sans-serif" font-size="14.00"> </text>
<text text-anchor="start" x="56.42" y="-9.2" font-family="Helvetica,Arial,sans-serif" font-weight="bold" font-size="14.00">Digraph: Data Integration Pipeline Control and Data Flow</text>
<text text-anchor="start" x="407.58" y="-9.2" font-family="Helvetica,Arial,sans-serif" font-size="14.00"> </text>
<g id="clust1" class="cluster" data-name="cluster_Setup">

<polygon fill="none" stroke="blue" stroke-dasharray="5,2" points="170,-869.6 170,-1092.4 456,-1092.4 456,-869.6 170,-869.6"/>
<text text-anchor="start" x="292.38" y="-1076.8" font-family="Helvetica,Arial,sans-serif" font-size="14.00"> </text>
<text text-anchor="start" x="295.88" y="-1076.8" font-family="Helvetica,Arial,sans-serif" font-weight="bold" font-size="14.00">Setup</text>
<text text-anchor="start" x="330.12" y="-1076.8" font-family="Helvetica,Arial,sans-serif" font-size="14.00"> </text>
</g>
<g id="clust2" class="cluster" data-name="cluster_Staging">

<polygon fill="none" stroke="blue" stroke-dasharray="5,2" points="8,-627.8 8,-850.6 376,-850.6 376,-627.8 8,-627.8"/>
<text text-anchor="start" x="149.8" y="-835" font-family="Helvetica,Arial,sans-serif" font-size="14.00"> </text>
<text text-anchor="start" x="153.3" y="-835" font-family="Helvetica,Arial,sans-serif" font-weight="bold" font-size="14.00">Data Staging</text>
<text text-anchor="start" x="230.7" y="-835" font-family="Helvetica,Arial,sans-serif" font-size="14.00"> </text>
</g>
<g id="clust3" class="cluster" data-name="cluster_Integration">

<polygon fill="none" stroke="blue" stroke-dasharray="5,2" points="26,-354.4 26,-608.8 334,-608.8 334,-354.4 26,-354.4"/>
<text text-anchor="start" x="126.53" y="-593.2" font-family="Helvetica,Arial,sans-serif" font-size="14.00"> </text>
<text text-anchor="start" x="130.03" y="-593.2" font-family="Helvetica,Arial,sans-serif" font-weight="bold" font-size="14.00">Data Integration</text>
<text text-anchor="start" x="229.97" y="-593.2" font-family="Helvetica,Arial,sans-serif" font-size="14.00"> </text>
</g>
<g id="clust4" class="cluster" data-name="cluster_Logging">

<polygon fill="none" stroke="blue" stroke-dasharray="5,2" points="71,-89.8 71,-239.6 255,-239.6 255,-89.8 71,-89.8"/>
<text text-anchor="start" x="134.99" y="-224" font-family="Helvetica,Arial,sans-serif" font-size="14.00"> </text>
<text text-anchor="start" x="138.49" y="-224" font-family="Helvetica,Arial,sans-serif" font-weight="bold" font-size="14.00">Logging</text>
<text text-anchor="start" x="187.51" y="-224" font-family="Helvetica,Arial,sans-serif" font-size="14.00"> </text>
</g>
<g id="clust5" class="cluster" data-name="cluster_ErrorHandling">

<polygon fill="none" stroke="blue" stroke-dasharray="5,2" points="263,-162.8 263,-335.4 441,-335.4 441,-162.8 263,-162.8"/>
<text text-anchor="start" x="301.25" y="-319.8" font-family="Helvetica,Arial,sans-serif" font-size="14.00"> </text>
<text text-anchor="start" x="304.75" y="-319.8" font-family="Helvetica,Arial,sans-serif" font-weight="bold" font-size="14.00">Error Handling</text>
<text text-anchor="start" x="399.25" y="-319.8" font-family="Helvetica,Arial,sans-serif" font-size="14.00"> </text>
</g>
<!-- RunDocker -->
<g id="node1" class="node" pointer-events="visible" data-name="RunDocker">

<polygon fill="lightgrey" stroke="black" points="407.13,-1059.6 218.87,-1059.6 218.87,-1023.6 407.13,-1023.6 407.13,-1059.6"/>
<text text-anchor="middle" x="313" y="-1037.4" font-family="Times,serif" font-size="14.00">Build &amp; Run Docker container</text>
</g>
<!-- ReadConfigFile -->
<g id="node2" class="node" pointer-events="visible" data-name="ReadConfigFile">

<polygon fill="none" stroke="black" points="447.57,-986.6 233.5,-986.6 178.43,-950.6 392.5,-950.6 447.57,-986.6"/>
<text text-anchor="middle" x="313" y="-964.4" font-family="Times,serif" font-size="14.00">Read config.json file</text>
</g>
<!-- RunDocker&#45;&gt;ReadConfigFile -->
<g id="edge2" class="edge" data-name="RunDocker-&gt;ReadConfigFile">

<path fill="none" stroke="black" d="M313,-1023.41C313,-1015.83 313,-1006.7 313,-998.14"/>
<polygon fill="black" stroke="black" points="316.5,-998.14 313,-988.14 309.5,-998.14 316.5,-998.14"/>
</g>
<!-- UnpackConfigParams -->
<g id="node3" class="node" pointer-events="visible" data-name="UnpackConfigParams">

<polygon fill="none" stroke="black" points="353.14,-913.6 206.86,-913.6 206.86,-877.6 353.14,-877.6 353.14,-913.6"/>
<text text-anchor="middle" x="280" y="-891.4" font-family="Times,serif" font-size="14.00">Unpack Config Params</text>
</g>
<!-- ReadConfigFile&#45;&gt;UnpackConfigParams -->
<g id="edge3" class="edge" data-name="ReadConfigFile-&gt;UnpackConfigParams">

<path fill="none" stroke="black" d="M305.01,-950.41C301.32,-942.48 296.85,-932.86 292.72,-923.96"/>
<polygon fill="black" stroke="black" points="295.94,-922.59 288.55,-915 289.59,-925.54 295.94,-922.59"/>
</g>
<!-- Catch -->
<g id="node12" class="node" pointer-events="visible" data-name="Catch">

<polygon fill="none" stroke="black" points="394.6,-302.6 309.4,-302.6 309.4,-266.6 394.6,-266.6 394.6,-302.6"/>
<text text-anchor="middle" x="352" y="-280.4" font-family="Times,serif" font-size="14.00">Catch Block</text>
</g>
<!-- ReadConfigFile&#45;&gt;Catch -->
<g id="edge12" class="edge" data-name="ReadConfigFile-&gt;Catch">

<path fill="none" stroke="black" stroke-dasharray="1,5" d="M354.5,-950.3C375.25,-938.62 396,-920.87 396,-896.6 396,-896.6 396,-896.6 396,-379.4 396,-355.08 383.73,-330.28 372.14,-312.3"/>
<polygon fill="black" stroke="black" points="375.05,-310.35 366.53,-304.05 369.26,-314.29 375.05,-310.35"/>
</g>
<!-- ChangeDataFormat -->
<g id="node4" class="node" pointer-events="visible" data-name="ChangeDataFormat">

<polygon fill="none" stroke="black" points="362.6,-817.8 147.4,-817.8 147.4,-781.8 362.6,-781.8 362.6,-817.8"/>
<text text-anchor="middle" x="255" y="-795.6" font-family="Times,serif" font-size="14.00">Convert Data Format: CSV -&gt; TSV</text>
</g>
<!-- UnpackConfigParams&#45;&gt;ChangeDataFormat -->
<g id="edge4" class="edge" data-name="UnpackConfigParams-&gt;ChangeDataFormat">

<path fill="none" stroke="black" d="M275.41,-877.4C271.81,-863.86 266.71,-844.72 262.51,-828.96"/>
<polygon fill="black" stroke="black" points="265.99,-828.44 260.03,-819.68 259.22,-830.24 265.99,-828.44"/>
</g>
<!-- CreateSchema -->
<g id="node5" class="node" pointer-events="visible" data-name="CreateSchema">

<polygon fill="none" stroke="black" points="322.92,-744.8 111.08,-744.8 111.08,-708.8 322.92,-708.8 322.92,-744.8"/>
<text text-anchor="middle" x="217" y="-722.6" font-family="Times,serif" font-size="14.00">Create dynamic temp table schema</text>
</g>
<!-- ChangeDataFormat&#45;&gt;CreateSchema -->
<g id="edge5" class="edge" data-name="ChangeDataFormat-&gt;CreateSchema">

<path fill="none" stroke="black" d="M245.8,-781.61C241.51,-773.59 236.29,-763.85 231.49,-754.87"/>
<polygon fill="black" stroke="black" points="234.63,-753.33 226.83,-746.16 228.46,-756.63 234.63,-753.33"/>
</g>
<!-- StageData -->
<g id="node6" class="node" pointer-events="visible" data-name="StageData">

<polygon fill="none" stroke="black" points="368.42,-671.8 87.78,-671.8 15.58,-635.8 296.22,-635.8 368.42,-671.8"/>
<text text-anchor="middle" x="192" y="-649.6" font-family="Times,serif" font-size="14.00">Copy raw data to temp table</text>
</g>
<!-- CreateSchema&#45;&gt;StageData -->
<g id="edge6" class="edge" data-name="CreateSchema-&gt;StageData">

<path fill="none" stroke="black" d="M210.95,-708.61C208.18,-700.76 204.84,-691.27 201.74,-682.46"/>
<polygon fill="black" stroke="black" points="205.12,-681.53 198.5,-673.26 198.52,-683.85 205.12,-681.53"/>
</g>
<!-- CheckProductionTable -->
<g id="node7" class="node" pointer-events="visible" data-name="CheckProductionTable">

<polygon fill="none" stroke="black" points="180,-576 33.83,-558 180,-540 326.17,-558 180,-576"/>
<text text-anchor="middle" x="180" y="-553.8" font-family="Times,serif" font-size="14.00">Production table exists?</text>
</g>
<!-- StageData&#45;&gt;CheckProductionTable -->
<g id="edge7" class="edge" data-name="StageData-&gt;CheckProductionTable">

<path fill="none" stroke="black" d="M189.8,-635.6C188.07,-622.11 185.64,-603.06 183.62,-587.33"/>
<polygon fill="black" stroke="black" points="187.12,-587.07 182.38,-577.6 180.18,-587.96 187.12,-587.07"/>
</g>
<!-- StageData&#45;&gt;Catch -->
<g id="edge13" class="edge" data-name="StageData-&gt;Catch">

<path fill="none" stroke="black" stroke-dasharray="1,5" d="M292.96,-635.41C309.4,-629.1 325.2,-620.5 338,-608.8 355.6,-592.7 358,-582.85 358,-559 358,-559 358,-559 358,-379.4 358,-357.45 356.34,-332.66 354.77,-314.09"/>
<polygon fill="black" stroke="black" points="358.28,-314.02 353.9,-304.37 351.31,-314.65 358.28,-314.02"/>
</g>
<!-- TransformStagedData -->
<g id="node8" class="node" pointer-events="visible" data-name="TransformStagedData">

<polygon fill="none" stroke="black" points="267.54,-487.2 80.46,-487.2 80.46,-451.2 267.54,-451.2 267.54,-487.2"/>
<text text-anchor="middle" x="174" y="-465" font-family="Times,serif" font-size="14.00">Transform data in staging area</text>
</g>
<!-- CheckProductionTable&#45;&gt;TransformStagedData -->
<g id="edge8" class="edge" data-name="CheckProductionTable-&gt;TransformStagedData">

<path fill="none" stroke="black" d="M178.81,-539.85C178.01,-528.16 176.92,-512.39 175.98,-498.82"/>
<polygon fill="black" stroke="black" points="179.49,-498.86 175.31,-489.12 172.51,-499.34 179.49,-498.86"/>
<text text-anchor="middle" x="188.89" y="-509.4" font-family="Times,serif" font-size="14.00">Yes</text>
</g>
<!-- CheckProductionTable&#45;&gt;Catch -->
<g id="edge15" class="edge" data-name="CheckProductionTable-&gt;Catch">

<path fill="none" stroke="black" stroke-dasharray="1,5" d="M207.72,-543C229.27,-530.86 258.5,-511.45 277,-487.2 317.81,-433.69 338.33,-355.62 346.9,-314.08"/>
<polygon fill="black" stroke="black" points="350.31,-314.87 348.81,-304.39 343.44,-313.52 350.31,-314.87"/>
<text text-anchor="middle" x="323.56" y="-420.6" font-family="Times,serif" font-size="14.00">No</text>
</g>
<!-- IntegrateData -->
<g id="node9" class="node" pointer-events="visible" data-name="IntegrateData">

<polygon fill="none" stroke="black" points="291.91,-398.4 34.09,-398.4 34.09,-362.4 291.91,-362.4 291.91,-398.4"/>
<text text-anchor="middle" x="163" y="-376.2" font-family="Times,serif" font-size="14.00">Incrementally load data to production table</text>
</g>
<!-- TransformStagedData&#45;&gt;IntegrateData -->
<g id="edge9" class="edge" data-name="TransformStagedData-&gt;IntegrateData">

<path fill="none" stroke="black" d="M171.83,-451.05C170.34,-439.36 168.35,-423.59 166.63,-410.02"/>
<polygon fill="black" stroke="black" points="170.13,-409.79 165.4,-400.31 163.18,-410.67 170.13,-409.79"/>
</g>
<!-- WriteFunction_DML -->
<g id="node10" class="node" pointer-events="visible" data-name="WriteFunction_DML">

<polygon fill="none" stroke="black" points="247.3,-206.8 78.7,-206.8 78.7,-170.8 247.3,-170.8 247.3,-206.8"/>
<text text-anchor="middle" x="163" y="-184.6" font-family="Times,serif" font-size="14.00">Log data integration output</text>
</g>
<!-- IntegrateData&#45;&gt;WriteFunction_DML -->
<g id="edge10" class="edge" data-name="IntegrateData-&gt;WriteFunction_DML">

<path fill="none" stroke="black" d="M163,-361.9C163,-329.17 163,-258.39 163,-218.55"/>
<polygon fill="black" stroke="black" points="166.5,-218.77 163,-208.77 159.5,-218.77 166.5,-218.77"/>
</g>
<!-- IntegrateData&#45;&gt;Catch -->
<g id="edge14" class="edge" data-name="IntegrateData-&gt;Catch">

<path fill="none" stroke="black" stroke-dasharray="1,5" d="M198.11,-361.98C228.77,-346.76 273.48,-324.57 306.81,-308.03"/>
<polygon fill="black" stroke="black" points="308,-311.34 315.41,-303.76 304.89,-305.07 308,-311.34"/>
</g>
<!-- WriteFunction_Program -->
<g id="node11" class="node" pointer-events="visible" data-name="WriteFunction_Program">

<polygon fill="none" stroke="black" points="241.5,-133.8 96.5,-133.8 96.5,-97.8 241.5,-97.8 241.5,-133.8"/>
<text text-anchor="middle" x="169" y="-111.6" font-family="Times,serif" font-size="14.00">Log program's runtime</text>
</g>
<!-- WriteFunction_DML&#45;&gt;WriteFunction_Program -->
<g id="edge11" class="edge" data-name="WriteFunction_DML-&gt;WriteFunction_Program">

<path fill="none" stroke="black" d="M164.45,-170.61C165.1,-162.94 165.88,-153.69 166.61,-145.04"/>
<polygon fill="black" stroke="black" points="170.08,-145.6 167.43,-135.34 163.1,-145.01 170.08,-145.6"/>
</g>
<!-- end -->
<g id="node15" class="node" pointer-events="visible" data-name="end">

<ellipse fill="none" stroke="black" cx="169" cy="-42.8" rx="27" ry="18"/>
<text text-anchor="middle" x="169" y="-38.6" font-family="Times,serif" font-size="14.00">end</text>
</g>
<!-- WriteFunction_Program&#45;&gt;end -->
<g id="edge18" class="edge" data-name="WriteFunction_Program-&gt;end">

<path fill="none" stroke="black" d="M169,-97.61C169,-90.03 169,-80.9 169,-72.34"/>
<polygon fill="black" stroke="black" points="172.5,-72.34 169,-62.34 165.5,-72.34 172.5,-72.34"/>
</g>
<!-- PrintError -->
<g id="node13" class="node" pointer-events="visible" data-name="PrintError">

<polygon fill="none" stroke="black" points="432.92,-206.8 271.08,-206.8 271.08,-170.8 432.92,-170.8 432.92,-206.8"/>
<text text-anchor="middle" x="352" y="-184.6" font-family="Times,serif" font-size="14.00">Print error msg to console</text>
</g>
<!-- Catch&#45;&gt;PrintError -->
<g id="edge16" class="edge" data-name="Catch-&gt;PrintError">

<path fill="none" stroke="black" stroke-dasharray="1,5" d="M352,-266.4C352,-252.99 352,-234.09 352,-218.42"/>
<polygon fill="black" stroke="black" points="355.5,-218.73 352,-208.73 348.5,-218.73 355.5,-218.73"/>
</g>
<!-- PrintError&#45;&gt;WriteFunction_Program -->
<g id="edge17" class="edge" data-name="PrintError-&gt;WriteFunction_Program">

<path fill="none" stroke="black" stroke-dasharray="1,5" d="M307.23,-170.43C282.31,-160.76 251.06,-148.64 224.58,-138.36"/>
<polygon fill="black" stroke="black" points="225.94,-135.14 215.35,-134.78 223.41,-141.66 225.94,-135.14"/>
</g>
<!-- start -->
<g id="node14" class="node" pointer-events="visible" data-name="start">

<ellipse fill="none" stroke="black" cx="313" cy="-1137.4" rx="27.83" ry="18"/>
<text text-anchor="middle" x="313" y="-1133.2" font-family="Times,serif" font-size="14.00">start</text>
</g>
<!-- start&#45;&gt;RunDocker -->
<g id="edge1" class="edge" data-name="start-&gt;RunDocker">

<path fill="none" stroke="black" d="M313,-1119.2C313,-1105.79 313,-1086.89 313,-1071.22"/>
<polygon fill="black" stroke="black" points="316.5,-1071.53 313,-1061.53 309.5,-1071.53 316.5,-1071.53"/>
</g>
</g>
</svg>