<?xml version="1.0" encoding="UTF-8" standalone="no"?><!DOCTYPE svg PUBLIC "-//W3C//DTD SVG 1.1//EN" "http://www.w3.org/Graphics/SVG/1.1/DTD/svg11.dtd"><!-- Generated by graphviz version 2.40.1 (20161225.0304)
 --><!-- Title: DataIntegratorProgram Pages: 1 --><svg xmlns="http://www.w3.org/2000/svg" xmlns:xlink="http://www.w3.org/1999/xlink" width="447pt" height="1496pt" viewBox="0.00 0.00 446.77 1496.00">
<g id="graph0" class="graph" transform="scale(1 1) rotate(0) translate(4 1492)">
<title>DataIntegratorProgram</title>
<polygon fill="#ffffff" stroke="transparent" points="-4,4 -4,-1492 442.7658,-1492 442.7658,4 -4,4"/>
<text text-anchor="start" x="38.9005" y="-9.2" font-family="Helvetica,Arial,sans-serif" font-size="14.00" fill="#000000"> </text>
<text text-anchor="start" x="42.7911" y="-9.2" font-family="Helvetica,Arial,sans-serif" font-weight="bold" font-size="14.00" fill="#000000">Digraph: Data Integration Pipeline Control and Data Flow</text>
<text text-anchor="start" x="395.9747" y="-9.2" font-family="Helvetica,Arial,sans-serif" font-size="14.00" fill="#000000"> </text>
<g id="clust1" class="cluster">
<title>cluster_Setup</title>
<polygon fill="none" stroke="#0000ff" stroke-dasharray="5,2" points="62,-1110.4 62,-1425 396,-1425 396,-1110.4 62,-1110.4"/>
<text text-anchor="start" x="206.8219" y="-1409.4" font-family="Helvetica,Arial,sans-serif" font-size="14.00" fill="#000000"> </text>
<text text-anchor="start" x="210.7125" y="-1409.4" font-family="Helvetica,Arial,sans-serif" font-weight="bold" font-size="14.00" fill="#000000">Setup</text>
<text text-anchor="start" x="247.2875" y="-1409.4" font-family="Helvetica,Arial,sans-serif" font-size="14.00" fill="#000000"> </text>
</g>
<g id="clust2" class="cluster">
<title>cluster_Staging</title>
<polygon fill="none" stroke="#0000ff" stroke-dasharray="5,2" points="29,-792.6 29,-1091.4 397,-1091.4 397,-792.6 29,-792.6"/>
<text text-anchor="start" x="168.6508" y="-1075.8" font-family="Helvetica,Arial,sans-serif" font-size="14.00" fill="#000000"> </text>
<text text-anchor="start" x="172.5414" y="-1075.8" font-family="Helvetica,Arial,sans-serif" font-weight="bold" font-size="14.00" fill="#000000">Data Staging</text>
<text text-anchor="start" x="253.4586" y="-1075.8" font-family="Helvetica,Arial,sans-serif" font-size="14.00" fill="#000000"> </text>
</g>
<g id="clust3" class="cluster">
<title>cluster_Integration</title>
<polygon fill="none" stroke="#0000ff" stroke-dasharray="5,2" points="83,-427.4 83,-773.6 391,-773.6 391,-427.4 83,-427.4"/>
<text text-anchor="start" x="183.3156" y="-758" font-family="Helvetica,Arial,sans-serif" font-size="14.00" fill="#000000"> </text>
<text text-anchor="start" x="187.2062" y="-758" font-family="Helvetica,Arial,sans-serif" font-weight="bold" font-size="14.00" fill="#000000">Data Integration</text>
<text text-anchor="start" x="286.7938" y="-758" font-family="Helvetica,Arial,sans-serif" font-size="14.00" fill="#000000"> </text>
</g>
<g id="clust4" class="cluster">
<title>cluster_Logging</title>
<polygon fill="none" stroke="#0000ff" stroke-dasharray="5,2" points="194,-89.8 194,-312.6 378,-312.6 378,-89.8 194,-89.8"/>
<text text-anchor="start" x="257.2083" y="-297" font-family="Helvetica,Arial,sans-serif" font-size="14.00" fill="#000000"> </text>
<text text-anchor="start" x="261.0989" y="-297" font-family="Helvetica,Arial,sans-serif" font-weight="bold" font-size="14.00" fill="#000000">Logging</text>
<text text-anchor="start" x="310.9011" y="-297" font-family="Helvetica,Arial,sans-serif" font-size="14.00" fill="#000000"> </text>
</g>
<g id="clust5" class="cluster">
<title>cluster_ErrorHandling</title>
<polygon fill="none" stroke="#0000ff" stroke-dasharray="5,2" points="8,-162.8 8,-408.4 186,-408.4 186,-162.8 8,-162.8"/>
<text text-anchor="start" x="47.9972" y="-392.8" font-family="Helvetica,Arial,sans-serif" font-size="14.00" fill="#000000"> </text>
<text text-anchor="start" x="51.8878" y="-392.8" font-family="Helvetica,Arial,sans-serif" font-weight="bold" font-size="14.00" fill="#000000">Error Handling</text>
<text text-anchor="start" x="142.1122" y="-392.8" font-family="Helvetica,Arial,sans-serif" font-size="14.00" fill="#000000"> </text>
</g>
<!-- CreateEnvFile -->
<g id="node1" class="node">
<title>CreateEnvFile</title>
<polygon fill="none" stroke="#000000" points="332.1187,-1392.2 168.0799,-1392.2 125.8813,-1356.2 289.9201,-1356.2 332.1187,-1392.2"/>
<text text-anchor="middle" x="229" y="-1370" font-family="Times,serif" font-size="14.00" fill="#000000">Create .env file</text>
</g>
<!-- ConfirmRawZone -->
<g id="node2" class="node">
<title>ConfirmRawZone</title>
<polygon fill="none" stroke="#000000" points="229,-1281.2 70.1158,-1263.2 229,-1245.2 387.8842,-1263.2 229,-1281.2"/>
<text text-anchor="middle" x="229" y="-1259" font-family="Times,serif" font-size="14.00" fill="#000000">data/raw directory empty?</text>
</g>
<!-- CreateEnvFile&#45;&gt;ConfirmRawZone -->
<g id="edge2" class="edge">
<title>CreateEnvFile-&gt;ConfirmRawZone</title>
<path fill="none" stroke="#000000" d="M229,-1355.8706C229,-1338.4373 229,-1311.9482 229,-1291.7489"/>
<polygon fill="#000000" stroke="#000000" points="232.5001,-1291.5566 229,-1281.5566 225.5001,-1291.5567 232.5001,-1291.5566"/>
</g>
<!-- RunDocker -->
<g id="node3" class="node">
<title>RunDocker</title>
<polygon fill="#d3d3d3" stroke="#000000" points="311.626,-1154.4 130.374,-1154.4 130.374,-1118.4 311.626,-1118.4 311.626,-1154.4"/>
<text text-anchor="middle" x="221" y="-1132.2" font-family="Times,serif" font-size="14.00" fill="#000000">Build &amp; Run Docker services</text>
</g>
<!-- ConfirmRawZone&#45;&gt;RunDocker -->
<g id="edge3" class="edge">
<title>ConfirmRawZone-&gt;RunDocker</title>
<path fill="none" stroke="#000000" d="M227.8708,-1245.3016C226.5501,-1224.3693 224.3471,-1189.4508 222.7922,-1164.8056"/>
<polygon fill="#000000" stroke="#000000" points="226.2722,-1164.3777 222.1494,-1154.6179 219.2861,-1164.8185 226.2722,-1164.3777"/>
<text text-anchor="middle" x="233.5533" y="-1195.6" font-family="Times,serif" font-size="14.00" fill="#000000">No</text>
</g>
<!-- end -->
<g id="node15" class="node">
<title>end</title>
<ellipse fill="none" stroke="#000000" cx="351" cy="-42.8" rx="27" ry="18"/>
<text text-anchor="middle" x="351" y="-38.6" font-family="Times,serif" font-size="14.00" fill="#000000">end</text>
</g>
<!-- ConfirmRawZone&#45;&gt;end -->
<g id="edge4" class="edge">
<title>ConfirmRawZone-&gt;end</title>
<path fill="none" stroke="#000000" stroke-dasharray="1,5" d="M298.2033,-1253.0278C351.8083,-1243.1332 417,-1225.7628 417,-1199.8 417,-1199.8 417,-1199.8 417,-115.8 417,-92.3075 397.9599,-72.9915 380.3329,-60.1429"/>
<polygon fill="#000000" stroke="#000000" points="382.1131,-57.1202 371.8828,-54.365 378.162,-62.8985 382.1131,-57.1202"/>
<text text-anchor="middle" x="427.8829" y="-674.2" font-family="Times,serif" font-size="14.00" fill="#000000">Yes</text>
</g>
<!-- ChangeDataFormat -->
<g id="node4" class="node">
<title>ChangeDataFormat</title>
<polygon fill="none" stroke="#000000" points="327.5816,-1058.6 112.4184,-1058.6 112.4184,-1022.6 327.5816,-1022.6 327.5816,-1058.6"/>
<text text-anchor="middle" x="220" y="-1036.4" font-family="Times,serif" font-size="14.00" fill="#000000">Convert Data Format: CSV -&gt; TSV</text>
</g>
<!-- RunDocker&#45;&gt;ChangeDataFormat -->
<g id="edge5" class="edge">
<title>RunDocker-&gt;ChangeDataFormat</title>
<path fill="none" stroke="#000000" d="M220.8119,-1118.3808C220.6676,-1104.5527 220.4655,-1085.193 220.299,-1069.2477"/>
<polygon fill="#000000" stroke="#000000" points="223.7949,-1068.8271 220.1906,-1058.8642 216.7953,-1068.9002 223.7949,-1068.8271"/>
</g>
<!-- CreateSchema -->
<g id="node5" class="node">
<title>CreateSchema</title>
<polygon fill="none" stroke="#000000" points="321.9272,-947.6 110.0728,-947.6 110.0728,-911.6 321.9272,-911.6 321.9272,-947.6"/>
<text text-anchor="middle" x="216" y="-925.4" font-family="Times,serif" font-size="14.00" fill="#000000">Create dynamic temp table schema</text>
</g>
<!-- ChangeDataFormat&#45;&gt;CreateSchema -->
<g id="edge6" class="edge">
<title>ChangeDataFormat-&gt;CreateSchema</title>
<path fill="none" stroke="#000000" d="M219.3395,-1022.2706C218.7113,-1004.8373 217.7567,-978.3482 217.0288,-958.1489"/>
<polygon fill="#000000" stroke="#000000" points="220.5195,-957.8241 216.6615,-947.9566 213.524,-958.0762 220.5195,-957.8241"/>
</g>
<!-- StageData -->
<g id="node6" class="node">
<title>StageData</title>
<polygon fill="none" stroke="#000000" points="389.4259,-836.6 108.7718,-836.6 36.5741,-800.6 317.2282,-800.6 389.4259,-836.6"/>
<text text-anchor="middle" x="213" y="-814.4" font-family="Times,serif" font-size="14.00" fill="#000000">Copy raw data to temp table</text>
</g>
<!-- CreateSchema&#45;&gt;StageData -->
<g id="edge7" class="edge">
<title>CreateSchema-&gt;StageData</title>
<path fill="none" stroke="#000000" d="M215.5046,-911.2706C215.0334,-893.8373 214.3175,-867.3482 213.7716,-847.1489"/>
<polygon fill="#000000" stroke="#000000" points="217.2651,-846.8584 213.4961,-836.9566 210.2677,-847.0476 217.2651,-846.8584"/>
</g>
<!-- CheckProductionTable -->
<g id="node7" class="node">
<title>CheckProductionTable</title>
<polygon fill="none" stroke="#000000" points="237,-740.8 90.84,-722.8 237,-704.8 383.16,-722.8 237,-740.8"/>
<text text-anchor="middle" x="237" y="-718.6" font-family="Times,serif" font-size="14.00" fill="#000000">Production table exists?</text>
</g>
<!-- StageData&#45;&gt;CheckProductionTable -->
<g id="edge8" class="edge">
<title>StageData-&gt;CheckProductionTable</title>
<path fill="none" stroke="#000000" d="M217.5142,-800.5808C221.0563,-786.4419 226.0472,-766.5199 230.0912,-750.3778"/>
<polygon fill="#000000" stroke="#000000" points="233.552,-750.9656 232.5871,-740.4148 226.7618,-749.2644 233.552,-750.9656"/>
</g>
<!-- Catch -->
<g id="node12" class="node">
<title>Catch</title>
<polygon fill="none" stroke="#000000" points="139.5991,-375.6 54.4009,-375.6 54.4009,-339.6 139.5991,-339.6 139.5991,-375.6"/>
<text text-anchor="middle" x="97" y="-353.4" font-family="Times,serif" font-size="14.00" fill="#000000">Catch Block</text>
</g>
<!-- StageData&#45;&gt;Catch -->
<g id="edge13" class="edge">
<title>StageData-&gt;Catch</title>
<path fill="none" stroke="#000000" stroke-dasharray="1,5" d="M123.2996,-800.5932C107.115,-794.1592 91.4532,-785.4329 79,-773.6 61.4098,-756.8861 59,-747.0646 59,-722.8 59,-722.8 59,-722.8 59,-453.4 59,-428.9095 69.8631,-403.2213 79.9729,-384.6171"/>
<polygon fill="#000000" stroke="#000000" points="83.0675,-386.2557 84.9766,-375.8342 76.9853,-382.7906 83.0675,-386.2557"/>
</g>
<!-- TransformStagedData -->
<g id="node8" class="node">
<title>TransformStagedData</title>
<polygon fill="none" stroke="#000000" points="340.5394,-598.2 153.4606,-598.2 153.4606,-562.2 340.5394,-562.2 340.5394,-598.2"/>
<text text-anchor="middle" x="247" y="-576" font-family="Times,serif" font-size="14.00" fill="#000000">Transform data in staging area</text>
</g>
<!-- CheckProductionTable&#45;&gt;TransformStagedData -->
<g id="edge9" class="edge">
<title>CheckProductionTable-&gt;TransformStagedData</title>
<path fill="none" stroke="#000000" d="M238.2665,-704.7396C239.9628,-680.5501 242.9912,-637.366 244.998,-608.7488"/>
<polygon fill="#000000" stroke="#000000" points="248.504,-608.7845 245.7122,-598.5642 241.5211,-608.2948 248.504,-608.7845"/>
<text text-anchor="middle" x="252.8829" y="-639.4" font-family="Times,serif" font-size="14.00" fill="#000000">Yes</text>
</g>
<!-- CheckProductionTable&#45;&gt;Catch -->
<g id="edge15" class="edge">
<title>CheckProductionTable-&gt;Catch</title>
<path fill="none" stroke="#000000" stroke-dasharray="1,5" d="M175.1864,-712.3942C137.6824,-702.1408 97,-682.1369 97,-643.6 97,-643.6 97,-643.6 97,-453.4 97,-430.6318 97,-404.8198 97,-385.7299"/>
<polygon fill="#000000" stroke="#000000" points="100.5001,-385.6097 97,-375.6097 93.5001,-385.6098 100.5001,-385.6097"/>
<text text-anchor="middle" x="105.5533" y="-531.6" font-family="Times,serif" font-size="14.00" fill="#000000">No</text>
</g>
<!-- IntegrateData -->
<g id="node9" class="node">
<title>IntegrateData</title>
<polygon fill="none" stroke="#000000" points="382.9248,-471.4 125.0752,-471.4 125.0752,-435.4 382.9248,-435.4 382.9248,-471.4"/>
<text text-anchor="middle" x="254" y="-449.2" font-family="Times,serif" font-size="14.00" fill="#000000">Incrementally load data to production table</text>
</g>
<!-- TransformStagedData&#45;&gt;IntegrateData -->
<g id="edge10" class="edge">
<title>TransformStagedData-&gt;IntegrateData</title>
<path fill="none" stroke="#000000" d="M248.0029,-562.0327C249.1621,-541.0352 251.0837,-506.2261 252.4389,-481.679"/>
<polygon fill="#000000" stroke="#000000" points="255.9423,-481.7114 252.9989,-471.5336 248.9529,-481.3255 255.9423,-481.7114"/>
</g>
<!-- WriteFunction_DML -->
<g id="node10" class="node">
<title>WriteFunction_DML</title>
<polygon fill="none" stroke="#000000" points="370.3059,-279.8 201.6941,-279.8 201.6941,-243.8 370.3059,-243.8 370.3059,-279.8"/>
<text text-anchor="middle" x="286" y="-257.6" font-family="Times,serif" font-size="14.00" fill="#000000">Log data integration output</text>
</g>
<!-- IntegrateData&#45;&gt;WriteFunction_DML -->
<g id="edge11" class="edge">
<title>IntegrateData-&gt;WriteFunction_DML</title>
<path fill="none" stroke="#000000" d="M257.0105,-435.3747C262.6091,-401.8529 274.6576,-329.7125 281.3243,-289.7956"/>
<polygon fill="#000000" stroke="#000000" points="284.779,-290.3569 282.9742,-279.9169 277.8746,-289.2037 284.779,-290.3569"/>
</g>
<!-- IntegrateData&#45;&gt;Catch -->
<g id="edge14" class="edge">
<title>IntegrateData-&gt;Catch</title>
<path fill="none" stroke="#000000" stroke-dasharray="1,5" d="M224.4695,-435.3808C199.2217,-419.9747 162.7212,-397.7025 135.2432,-380.9357"/>
<polygon fill="#000000" stroke="#000000" points="137.024,-377.9222 126.6646,-375.7011 133.3778,-383.8976 137.024,-377.9222"/>
</g>
<!-- WriteFunction_Program -->
<g id="node11" class="node">
<title>WriteFunction_Program</title>
<polygon fill="none" stroke="#000000" points="359.1317,-133.8 212.8683,-133.8 212.8683,-97.8 359.1317,-97.8 359.1317,-133.8"/>
<text text-anchor="middle" x="286" y="-111.6" font-family="Times,serif" font-size="14.00" fill="#000000">Log program's runtime</text>
</g>
<!-- WriteFunction_DML&#45;&gt;WriteFunction_Program -->
<g id="edge12" class="edge">
<title>WriteFunction_DML-&gt;WriteFunction_Program</title>
<path fill="none" stroke="#000000" d="M286,-243.6042C286,-218.6868 286,-173.6938 286,-144.2877"/>
<polygon fill="#000000" stroke="#000000" points="289.5001,-144.2251 286,-134.2251 282.5001,-144.2251 289.5001,-144.2251"/>
</g>
<!-- WriteFunction_Program&#45;&gt;end -->
<g id="edge18" class="edge">
<title>WriteFunction_Program-&gt;end</title>
<path fill="none" stroke="#000000" d="M302.0674,-97.7551C310.4921,-88.2935 320.9159,-76.5867 329.9751,-66.4126"/>
<polygon fill="#000000" stroke="#000000" points="332.8474,-68.4499 336.8835,-58.654 327.6195,-63.7949 332.8474,-68.4499"/>
</g>
<!-- PrintError -->
<g id="node13" class="node">
<title>PrintError</title>
<polygon fill="none" stroke="#000000" points="177.9115,-206.8 16.0885,-206.8 16.0885,-170.8 177.9115,-170.8 177.9115,-206.8"/>
<text text-anchor="middle" x="97" y="-184.6" font-family="Times,serif" font-size="14.00" fill="#000000">Print error msg to console</text>
</g>
<!-- Catch&#45;&gt;PrintError -->
<g id="edge16" class="edge">
<title>Catch-&gt;PrintError</title>
<path fill="none" stroke="#000000" stroke-dasharray="1,5" d="M97,-339.5354C97,-310.1691 97,-251.8586 97,-216.9978"/>
<polygon fill="#000000" stroke="#000000" points="100.5001,-216.9898 97,-206.9898 93.5001,-216.9898 100.5001,-216.9898"/>
</g>
<!-- PrintError&#45;&gt;WriteFunction_Program -->
<g id="edge17" class="edge">
<title>PrintError-&gt;WriteFunction_Program</title>
<path fill="none" stroke="#000000" stroke-dasharray="1,5" d="M143.7191,-170.7551C169.7297,-160.7087 202.294,-148.1309 229.7027,-137.5445"/>
<polygon fill="#000000" stroke="#000000" points="231.096,-140.7584 239.1633,-133.8904 228.5739,-134.2285 231.096,-140.7584"/>
</g>
<!-- start -->
<g id="node14" class="node">
<title>start</title>
<ellipse fill="none" stroke="#000000" cx="229" cy="-1470" rx="27.8228" ry="18"/>
<text text-anchor="middle" x="229" y="-1465.8" font-family="Times,serif" font-size="14.00" fill="#000000">start</text>
</g>
<!-- start&#45;&gt;CreateEnvFile -->
<g id="edge1" class="edge">
<title>start-&gt;CreateEnvFile</title>
<path fill="none" stroke="#000000" d="M229,-1451.9808C229,-1438.1527 229,-1418.793 229,-1402.8477"/>
<polygon fill="#000000" stroke="#000000" points="232.5001,-1402.4641 229,-1392.4642 225.5001,-1402.4642 232.5001,-1402.4641"/>
</g>
</g>
</svg>